<svg width="122" height="121" viewBox="0 0 122 121" fill="none" xmlns="http://www.w3.org/2000/svg">
<g clip-path="url(#clip0_570_66)" filter="url(#filter0_d_570_66)">
<rect width="120" height="120" transform="translate(1)" fill="#F1F1F1"/>
<path d="M22.5703 87.4778C22.5703 86.8055 23.1157 86.2604 23.7884 86.2604H59.8431C60.5159 86.2604 61.0612 86.8055 61.0612 87.4778V94.7825C61.0612 95.4549 60.5159 96 59.8431 96H23.7884C23.1157 96 22.5703 95.4549 22.5703 94.7825V87.4778Z" fill="#100F13"/>
<path d="M23.7884 62.4714C23.1157 62.4714 22.5703 63.0165 22.5703 63.6889V70.9936C22.5703 71.666 23.1157 72.211 23.7884 72.211H75.3126C88.6324 72.211 99.4303 61.4186 99.4303 48.1055C99.4303 34.7924 88.6324 24 75.3126 24H23.7884C23.1157 24 22.5703 24.5451 22.5703 25.2175V32.5222C22.5703 33.1945 23.1157 33.7396 23.7884 33.7396H75.3126C83.2507 33.7396 89.6858 40.1714 89.6858 48.1055C89.6858 56.0396 83.2507 62.4714 75.3126 62.4714H23.7884Z" fill="#100F13"/>
</g>
<defs>
<filter id="filter0_d_570_66" x="0.88" y="0" width="120.24" height="120.24" filterUnits="userSpaceOnUse" color-interpolation-filters="sRGB">
<feFlood flood-opacity="0" result="BackgroundImageFix"/>
<feColorMatrix in="SourceAlpha" type="matrix" values="0 0 0 0 0 0 0 0 0 0 0 0 0 0 0 0 0 0 127 0" result="hardAlpha"/>
<feOffset dy="0.12"/>
<feGaussianBlur stdDeviation="0.06"/>
<feComposite in2="hardAlpha" operator="out"/>
<feColorMatrix type="matrix" values="0 0 0 0 0 0 0 0 0 0 0 0 0 0 0 0 0 0 0.25 0"/>
<feBlend mode="normal" in2="BackgroundImageFix" result="effect1_dropShadow_570_66"/>
<feBlend mode="normal" in="SourceGraphic" in2="effect1_dropShadow_570_66" result="shape"/>
</filter>
<clipPath id="clip0_570_66">
<rect width="120" height="120" fill="white" transform="translate(1)"/>
</clipPath>
</defs>
</svg>
