<svg width="39" height="37" viewBox="0 0 39 37" fill="none" xmlns="http://www.w3.org/2000/svg">
<path d="M0 32.2097C0 31.8685 0.276718 31.5919 0.618067 31.5919H18.9128C19.2542 31.5919 19.5309 31.8685 19.5309 32.2097V35.9162C19.5309 36.2574 19.2542 36.534 18.9128 36.534H0.618067C0.276718 36.534 0 36.2574 0 35.9162V32.2097Z" fill="#F1F1F1"/>
<path d="M0.618067 19.521C0.276718 19.521 0 19.7976 0 20.1388V23.8453C0 24.1865 0.276718 24.463 0.618067 24.463H26.7623C33.521 24.463 39 18.9868 39 12.2315C39 5.47624 33.521 0 26.7623 0H0.618067C0.276718 0 0 0.276578 0 0.617754V4.32428C0 4.66545 0.276718 4.94203 0.618067 4.94203H26.7623C30.7902 4.94203 34.0555 8.20565 34.0555 12.2315C34.0555 16.2574 30.7902 19.521 26.7623 19.521H0.618067Z" fill="#F1F1F1"/>
<path d="M39 12.2315C39 18.9868 33.521 24.463 26.7623 24.463C20.0036 24.463 14.5246 18.9868 14.5246 12.2315C14.5246 5.47624 20.0036 0 26.7623 0C33.521 0 39 5.47624 39 12.2315Z" fill="#98EC65"/>
</svg>
