<svg width="20" height="12" viewBox="0 0 20 12" fill="none" xmlns="http://www.w3.org/2000/svg">
<path fill-rule="evenodd" clip-rule="evenodd" d="M10 10.5051C6.40381 10.5051 3.3727 8.69535 1.46163 5.9091C3.3727 3.12284 6.40381 1.31313 10 1.31313C13.5962 1.31313 16.6274 3.12284 18.5384 5.9091C16.6274 8.69533 13.5962 10.5051 10 10.5051ZM10 0C5.74382 0 2.20852 2.2407 0.101334 5.56112C-0.0337785 5.77404 -0.0337779 6.04419 0.101335 6.25708C2.20852 9.57745 5.74382 11.8182 10 11.8182C14.2562 11.8182 17.7915 9.57745 19.8987 6.25708C20.0338 6.04419 20.0338 5.77404 19.8987 5.56112C17.7915 2.2407 14.2562 0 10 0ZM10 8.53535C11.4728 8.53535 12.6667 7.35954 12.6667 5.90909C12.6667 4.45865 11.4728 3.28283 10 3.28283C8.52725 3.28283 7.33335 4.45865 7.33335 5.90909C7.33335 7.35954 8.52725 8.53535 10 8.53535Z" fill="#B3B3B3"/>
</svg>
